<svg width="36" height="36" viewBox="0 0 36 36" fill="none" xmlns="http://www.w3.org/2000/svg">
<g clip-path="url(#clip0_18_2)">
<path fill-rule="evenodd" clip-rule="evenodd" d="M17.9305 7.49343C17.4148 8.38564 17.1574 9.40539 17.1851 10.4465C16.1852 10.047 15.0846 10.0077 14.0834 10.3359C13.0822 10.664 12.2468 11.3377 11.7292 12.2345L11.5778 12.4966L10.1136 9.89373C9.91936 9.54856 9.63644 9.25728 9.29402 9.04994C8.95159 8.8426 8.56205 8.72671 8.1656 8.71422C7.76914 8.70173 7.38012 8.7931 7.03867 8.9789C6.69721 9.1647 6.41569 9.4382 6.22314 9.77119L2.52043 16.1845C2.32803 16.5177 2.23168 16.8983 2.2413 17.287C2.25093 17.6758 2.36618 18.0585 2.57518 18.3958C2.78418 18.7331 3.07934 19.0126 3.4302 19.2056C3.78105 19.3986 4.17489 19.4981 4.57106 19.4937L7.5566 19.4616L7.40526 19.7237C6.83187 20.7168 6.69256 21.9063 7.01797 23.0305C7.34337 24.1548 8.10684 25.1216 9.14042 25.7183L22.1308 33.2183C23.1644 33.815 24.3834 33.9928 25.5197 33.7125C26.656 33.4322 27.6165 32.7168 28.1899 31.7237L32.5138 24.2345C32.8998 23.5662 33.0926 22.8025 33.0722 22.0228C33.0518 21.2431 32.8189 20.4758 32.3978 19.8004C33.4785 19.2609 34.3157 18.3563 34.7605 17.2474C35.2052 16.1386 35.2287 14.8974 34.8267 13.7445C34.4248 12.5916 33.6234 11.6017 32.5651 10.9509C31.5068 10.3002 30.2602 10.0306 29.0469 10.1902C28.9369 8.94418 28.4226 7.7519 27.5798 6.78894C26.7369 5.82598 25.6101 5.14323 24.3652 4.84123C23.1203 4.53922 21.8231 4.63393 20.6647 5.1114C19.5063 5.58887 18.5478 6.42387 17.9305 7.49343ZM24.568 7.99702C25.257 8.39485 25.766 9.03939 25.9829 9.78886C26.1999 10.5383 26.107 11.3313 25.7247 11.9934C25.3425 12.6555 24.7022 13.1325 23.9446 13.3193C23.1871 13.5062 22.3744 13.3877 21.6854 12.9898C20.9963 12.592 20.4873 11.9475 20.2704 11.198C20.0535 10.4485 20.1463 9.65552 20.5286 8.99343C20.9108 8.33134 21.5512 7.85441 22.3087 7.66754C23.0662 7.48068 23.8789 7.5992 24.568 7.99702ZM28.8301 17.1148C28.3133 16.8165 27.9315 16.3331 27.7688 15.771C27.6061 15.2089 27.6758 14.6141 27.9625 14.1175C28.2492 13.621 28.7294 13.2633 29.2976 13.1231C29.8657 12.983 30.4752 13.0719 30.992 13.3702C31.5088 13.6686 31.8905 14.152 32.0532 14.7141C32.216 15.2762 32.1463 15.871 31.8596 16.3675C31.5729 16.8641 31.0927 17.2218 30.5245 17.362C29.9564 17.5021 29.3469 17.4132 28.8301 17.1148Z" fill="black"/>
</g>
<defs>
<clipPath id="clip0_18_2">
<rect width="36" height="36" fill="white"/>
</clipPath>
</defs>
</svg>
