<svg width="33" height="33" viewBox="0 0 33 33" fill="none" xmlns="http://www.w3.org/2000/svg">
<g clip-path="url(#clip0_52_7)">
<path d="M28.6375 10.183C27.7188 9.65258 26.627 9.50925 25.6023 9.78383C24.5776 10.0584 23.7038 10.7284 23.1734 11.6471C22.643 12.5659 22.4996 13.6576 22.7742 14.6823C23.0488 15.707 23.7188 16.5808 24.6375 17.1112C25.5562 17.6417 26.6479 17.785 27.6727 17.5104C28.6974 17.2358 29.5712 16.5659 30.1016 15.6471C30.632 14.7284 30.7754 13.6367 30.5008 12.612C30.2262 11.5872 29.5562 10.7134 28.6375 10.183Z" fill="white" stroke="black"/>
<path d="M20.8433 5.68301C19.9245 5.15258 18.8328 5.00925 17.8081 5.28383C16.7834 5.5584 15.9096 6.22838 15.3792 7.14712C14.8487 8.06585 14.7054 9.15756 14.98 10.1823C15.2546 11.207 15.9245 12.0808 16.8433 12.6112C17.762 13.1417 18.8537 13.285 19.8784 13.0104C20.9032 12.7358 21.7769 12.0659 22.3074 11.1471C22.8378 10.2284 22.9811 9.13667 22.7066 8.11195C22.432 7.08723 21.762 6.21345 20.8433 5.68301Z" fill="white" stroke="black"/>
<path d="M25.4365 18.7272L15.6937 13.1022C15.1687 12.799 14.5509 12.6969 13.9561 12.8151C13.3615 12.9332 12.8302 13.2639 12.4609 13.7447L12.0532 14.275L11.66 13.7334L8.6561 9.60626L8.65659 9.60541C8.55867 9.47056 8.42816 9.36264 8.27777 9.29085C8.12745 9.21909 7.9616 9.18633 7.79525 9.19494C7.62882 9.20361 7.46664 9.25336 7.32451 9.34038C7.18258 9.42733 7.06469 9.54848 6.98135 9.69255L1.38467 19.3863C1.30183 19.5303 1.25612 19.6926 1.25175 19.8587C1.24747 20.025 1.28485 20.1903 1.36033 20.3386C1.43589 20.4869 1.54754 20.6142 1.68464 20.7085C1.82184 20.8029 1.98087 20.8618 2.14647 20.8793L7.22349 21.4177L7.88866 21.4882L7.63372 22.1056C7.40198 22.6658 7.38126 23.2913 7.57622 23.8653C7.7713 24.4395 8.16858 24.9235 8.69375 25.2266L18.4365 30.8516C19.0107 31.1831 19.6931 31.2727 20.3335 31.1011C20.974 30.9295 21.5201 30.5107 21.8516 29.9365L26.3516 22.1423C26.6831 21.5681 26.7727 20.8858 26.6011 20.2453C26.4295 19.6049 26.0107 19.0588 25.4365 18.7272Z" fill="white" stroke="black"/>
</g>
<defs>
<clipPath id="clip0_52_7">
<rect width="24" height="24" fill="white" transform="matrix(-0.866025 -0.5 -0.5 0.866025 32.7846 12)"/>
</clipPath>
</defs>
</svg>
