<svg width="36" height="36" viewBox="0 0 36 36" fill="none" xmlns="http://www.w3.org/2000/svg">
<g clip-path="url(#clip0_18_6)">
<path fill-rule="evenodd" clip-rule="evenodd" d="M26.0096 5.5C25.0933 4.97063 24.0588 4.68354 23.0109 4.66785C21.9631 4.65216 20.9392 4.90842 20.0432 5.41066C19.1472 5.91289 18.4109 6.64321 17.909 7.52755C17.4071 8.41189 17.1574 9.41879 17.1853 10.4461C16.2283 10.0636 15.1775 10.0106 14.2089 10.2961C13.2403 10.5816 12.4128 11.1883 11.8649 12.0144L11.7294 12.2341L11.578 12.4962L10.1138 9.89336C9.92756 9.56206 9.65949 9.28011 9.33512 9.07438C9.01074 8.86864 8.64088 8.74597 8.26074 8.71805C7.88061 8.69013 7.50288 8.75788 7.16352 8.91486C6.82416 9.07184 6.53448 9.31281 6.32207 9.61483L6.22261 9.7721L2.51981 16.1855C2.33513 16.5052 2.23871 16.8687 2.23972 17.2415C2.24073 17.6143 2.33915 17.9839 2.5256 18.3151C2.71205 18.6463 2.98031 18.9282 3.30484 19.1337C3.62937 19.3393 3.99934 19.4617 4.37952 19.4894L4.57042 19.4948L7.5567 19.4614L7.40536 19.7235C6.85384 20.6787 6.703 21.817 6.98371 22.9057C7.26443 23.9943 7.95546 24.951 8.91544 25.58L9.14046 25.7182L22.1308 33.2182C23.1249 33.7922 24.292 33.9795 25.3936 33.7418C26.4951 33.5041 27.4478 32.8593 28.0566 31.9395L28.19 31.7235L32.514 24.2341C32.9 23.5658 33.0928 22.8022 33.0724 22.0224C33.052 21.2427 32.8191 20.4754 32.398 19.8C33.4788 19.2604 34.316 18.3558 34.7608 17.2469C35.2055 16.1381 35.229 14.8968 34.8271 13.7439C34.4251 12.591 33.6237 11.6012 32.5654 10.9504C31.5071 10.2996 30.2605 10.03 29.0473 10.1896C28.963 9.23701 28.642 8.31117 28.1123 7.49347C27.5827 6.67577 26.8606 5.99123 26.0096 5.5ZM16.3472 13.2359L29.3375 20.7359C29.6821 20.9348 29.9365 21.2571 30.045 21.6318C30.1535 22.0066 30.107 22.4031 29.9159 22.7341L25.5919 30.2235C25.4008 30.5546 25.0806 30.7931 24.7018 30.8865C24.3231 30.9799 23.9167 30.9207 23.5722 30.7218L10.5818 23.2218C10.2373 23.0228 9.98279 22.7006 9.87432 22.3258C9.76586 21.9511 9.8123 21.5546 10.0034 21.2235L14.3274 13.7341C14.5186 13.4031 14.8387 13.1646 15.2175 13.0711C15.5963 12.9777 16.0026 13.037 16.3472 13.2359ZM8.17569 12.3893L9.8859 15.4271L9.24955 16.5293L5.76361 16.5671L8.17569 12.3893ZM24.5683 7.99647C25.2573 8.39429 25.7663 9.03885 25.9832 9.78833C26.2002 10.5378 26.1073 11.3308 25.725 11.9929C25.3428 12.655 24.7024 13.132 23.9449 13.3189C23.1873 13.5057 22.3747 13.3872 21.6856 12.9894C20.9966 12.5916 20.4876 11.947 20.2706 11.1976C20.0537 10.4481 20.1466 9.65504 20.5289 8.99294C20.9111 8.33083 21.5515 7.85388 22.309 7.66701C23.0665 7.48013 23.8792 7.59864 24.5683 7.99647ZM30.9923 13.3697C31.5091 13.6681 31.8908 14.1515 32.0535 14.7136C32.2162 15.2757 32.1466 15.8705 31.8599 16.3671C31.5732 16.8636 31.0929 17.2214 30.5248 17.3615C29.9566 17.5017 29.3471 17.4128 28.8303 17.1144C28.3135 16.816 27.9318 16.3326 27.7691 15.7705C27.6064 15.2084 27.6761 14.6136 27.9628 14.1171C28.2495 13.6205 28.7297 13.2628 29.2979 13.1226C29.866 12.9825 30.4755 13.0713 30.9923 13.3697Z" fill="black"/>
</g>
<defs>
<clipPath id="clip0_18_6">
<rect width="36" height="36" fill="white"/>
</clipPath>
</defs>
</svg>
