<svg width="33" height="33" viewBox="0 0 33 33" fill="none" xmlns="http://www.w3.org/2000/svg">
<g clip-path="url(#clip0_52_2)">
<path d="M22.7404 11.3971C22.1436 12.4307 21.9819 13.659 22.2908 14.8118C22.5997 15.9646 23.3539 16.9475 24.3875 17.5442C25.4211 18.141 26.6494 18.3027 27.8022 17.9938C28.955 17.6849 29.9379 16.9307 30.5346 15.8971C31.1313 14.8635 31.2931 13.6352 30.9842 12.4824C30.6753 11.3296 29.9211 10.3467 28.8875 9.75C27.8539 9.15326 26.6256 8.99156 25.4728 9.30045C24.32 9.60934 23.3371 10.3635 22.7404 11.3971ZM29.2356 15.1471C28.8377 15.8362 28.1825 16.339 27.414 16.5449C26.6454 16.7508 25.8265 16.643 25.1375 16.2452C24.4484 15.8474 23.9456 15.1921 23.7397 14.4236C23.5338 13.655 23.6416 12.8362 24.0394 12.1471C24.4372 11.4581 25.0925 10.9553 25.861 10.7493C26.6296 10.5434 27.4484 10.6512 28.1375 11.049C28.8265 11.4469 29.3293 12.1021 29.5353 12.8707C29.7412 13.6392 29.6334 14.4581 29.2356 15.1471Z" fill="black"/>
<path d="M16.5933 13.0442L15.9437 12.6692C15.3136 12.3053 14.5727 12.1829 13.859 12.3246C13.1453 12.4663 12.5075 12.8626 12.0643 13.4397L9.06075 9.31194C8.91387 9.10965 8.71877 8.94729 8.49317 8.83959C8.26758 8.7319 8.01864 8.6823 7.769 8.69529C7.51936 8.70829 7.27692 8.78346 7.06372 8.914C6.85053 9.04453 6.67333 9.22627 6.54825 9.44271L0.95175 19.1361C0.827046 19.3526 0.758364 19.5967 0.751939 19.8464C0.745513 20.0961 0.801548 20.3435 0.914956 20.566C1.02836 20.7886 1.19556 20.9793 1.40136 21.1209C1.60716 21.2624 1.84505 21.3503 2.09345 21.3767L7.17126 21.9146C6.89312 22.587 6.86884 23.3376 7.10294 24.0265C7.33704 24.7155 7.81355 25.2959 8.44375 25.6596L18.1865 31.2846C18.8756 31.6824 19.6945 31.7902 20.463 31.5843C21.2315 31.3784 21.8868 30.8756 22.2846 30.1865L26.7846 22.3923C27.1824 21.7033 27.2902 20.8844 27.0843 20.1158C26.8784 19.3473 26.3756 18.6921 25.6865 18.2942L16.5933 13.0442ZM2.25154 19.8848L7.84654 10.194L11.2269 14.839L7.96442 20.4898L2.25154 19.8848ZM25.4856 21.6423L20.9856 29.4365C20.7867 29.7811 20.459 30.0325 20.0748 30.1354C19.6905 30.2384 19.2811 30.1845 18.9365 29.9856L9.19375 24.3606C8.84922 24.1617 8.59782 23.834 8.49486 23.4498C8.39189 23.0655 8.4458 22.6561 8.64471 22.3115L13.1447 14.5173C13.3436 14.1728 13.6713 13.9214 14.0555 13.8184C14.4398 13.7155 14.8492 13.7694 15.1937 13.9683L24.9365 19.5933C25.2811 19.7922 25.5325 20.1198 25.6354 20.5041C25.7384 20.8883 25.6845 21.2978 25.4856 21.6423Z" fill="black"/>
<path d="M16.5933 13.0442C15.5597 12.4475 14.8055 11.4646 14.4966 10.3118C14.1877 9.15899 14.3494 7.93069 14.9462 6.89711C15.5429 5.86354 16.5258 5.10934 17.6786 4.80045C18.8314 4.49155 20.0597 4.65326 21.0933 5.25C22.1268 5.84674 22.881 6.82962 23.1899 7.98243C23.4988 9.13524 23.3371 10.3635 22.7404 11.3971C22.1436 12.4307 21.1608 13.1849 20.008 13.4938C18.8551 13.8027 17.6268 13.641 16.5933 13.0442ZM21.4413 10.6471C21.8392 9.95806 21.947 9.1392 21.741 8.37066C21.5351 7.60212 21.0323 6.94686 20.3433 6.54904C19.6542 6.15121 18.8353 6.04341 18.0668 6.24934C17.2983 6.45527 16.643 6.95806 16.2452 7.64711C15.8474 8.33617 15.7396 9.15503 15.9455 9.92357C16.1514 10.6921 16.6542 11.3474 17.3433 11.7452C18.0323 12.143 18.8512 12.2508 19.6197 12.0449C20.3883 11.839 21.0435 11.3362 21.4413 10.6471Z" fill="black"/>
</g>
<defs>
<clipPath id="clip0_52_2">
<rect width="24" height="24" fill="white" transform="matrix(-0.866025 -0.5 -0.5 0.866025 32.7846 12)"/>
</clipPath>
</defs>
</svg>
